General                          : ChattChitto RG - Movie Release
==========
Complete name                    : Sorority Row 2009 BDRip.MP4
Format                           : MPEG-4
Format profile                   : Base Media
Codec ID                         : isom
File size                        : 1.87 GiB
Duration                         : 1h 40mn
Overall bit rate                 : 2 653 Kbps
Encoded date                     : UTC 2010-02-25 13:10:00

Video
==========
ID                               : 1
Format                           : AVC
Format/Info                      : Advanced Video Codec
Format profile                   : High@L3.1
Format settings, CABAC           : Yes
Format settings, ReFrames        : 3 frames
Codec ID                         : avc1
Codec ID/Info                    : Advanced Video Coding
Duration                         : 1h 40mn
Bit rate mode                    : Variable
Bit rate                         : 2 300 Kbps
Maximum bit rate                 : 23.7 Mbps
Width                            : 1 280 pixels
Height                           : 528 pixels
Display aspect ratio             : 2.40:1
Frame rate mode                  : Constant
Frame rate                       : 23.976 fps
Resolution                       : 8 bits
Colorimetry                      : 4:2:0
Scan type                        : Progressive
Bits/(Pixel*Frame)               : 0.142
Stream size                      : 1.62 GiB (87%)
Writing library                  : x264 
Encoded date                     : UTC 2010-02-25 06:19:19

Audio
==========
ID                               : 2
Format                           : AAC
Format/Info                      : Advanced Audio Codec
Format version                   : Version 4
Format profile                   : LC
Format settings, SBR             : No
Codec ID                         : 40
Duration                         : 1h 40mn
Bit rate mode                    : Variable
Bit rate                         : 352.8 Kbps
Maximum bit rate                 : 453 Kbps
Channel(s)                       : 6 channels
Channel positions                : Front: L C R, Rear: L R, LFE
Sampling rate                    : 48.0 KHz
Stream size                      : 253 MiB (13%)
Encoded date                     : UTC 2010-02-25 13:10:57

Subtitles                        : English | Spanish [.srt]



----------------------------------------------------
IMDB Link: http://www.imdb.com/title/tt1232783/
----------------------------------------------------


Screen Shots:
============== 
http://bayimg.com/pakkBAACN 
http://bayimg.com/Pakkaaacn 
http://bayimg.com/OAKKPaACN  
http://bayimg.com/oaKKoaacn 
http://bayimg.com/OAkKnaACn



Plot:
======
After a wayward prank leaves one of their own dead, a group of sorority sisters 
try to cover it up, only to be stalked by a serial killer.


Release Info:
==============
original name .... : Sorority Row 2009 BDRip H264 AAC
ripper.............: Recalled2Life (R2L)
encoder............: Recalled2Life (R2L)
video codec........: H264/.MP4                   
video bitrate......: 2300 Kbps                           
audio codec........: ACC-LC	                                        
aspect ratio.......: 2.40:1                           
resolution.........: 1280 x 528                                
genre..............: Horror | Thriller         
runtime............: 1h 40mn
language...........: English                              
subtitles..........: English | Spanish [.srt]
2ch Audio..........: 2ch Audio for XBox Viewers 


Source:
========
Sorority Row 2009 Blue-Ray 1080p MPEG-4 AVC/DTS-HD Master Audio 5.1 [27.6 GB]


Notes:
=======
ChattChitto RG Encourages Burning this Film with ConvertXtoDVD.
Enhanced for your viewing pleasure ;)